<svg id="Capa_1" enable-background="new 0 0 512.002 512.002" height="512" viewBox="0 0 512.002 512.002" width="512" xmlns="http://www.w3.org/2000/svg"><g><path d="m-16.049 354.33h277.79v69.66h-277.79z" fill="#ffdca9" transform="matrix(.707 -.707 .707 .707 -239.197 200.847)"/><path d="m-3.735 384.059h277.79v34.83h-277.79z" fill="#fcbd6a" transform="matrix(.707 -.707 .707 .707 -244.298 213.162)"/><path d="m330.175 181.833-.002.002h.006l-.003-.004z"/><path d="m439.018 327.504c-30.342 22.705-68.024 36.161-108.845 36.154-25.696 0-50.155-5.324-72.316-14.941-22.012-9.553-35.801-29.395-44.88-49.688-6.548-14.623-10.642-29.479-13.612-40.892 0 0-47.171-32.294-49.816-55.274-.806-6.901-1.209-13.909-1.209-21.036 0-59.397 28.482-112.133 72.528-145.317 30.427-22.931 114.205-2.652 114.205-2.652s44.534-28.68 66.433-19.325c21.531 9.185 40.934 22.408 57.24 38.728 28.143 28.143 47.093 65.45 51.994 107.077.467 3.917-6.428 64.552-36.14 84.719 0-.002-15.91 67.725-35.582 82.447z" fill="#fff9e1"/><path d="m439.018 327.504c-30.342 22.705-68.024 36.161-108.845 36.154-25.696 0-50.155-5.324-72.316-14.941-22.012-9.553-35.801-29.395-44.88-49.688l245.769-245.77c28.143 28.143 47.093 65.45 51.994 107.077.467 3.917-6.428 64.552-36.14 84.719 0 0-15.91 67.727-35.582 82.449z" fill="#ffdea8"/><g fill="#ff7b49"><path d="m330.173 181.833c27.238-47.419 10.699-107.784-36.72-134.994-22.882-13.138-48.819-16.094-72.585-10.331 30.427-22.931 68.286-36.508 109.298-36.508 25.329 0 49.441 5.176 71.34 14.531 4.681 4.879 8.881 10.239 12.495 16.002 9.518 15.203 15.033 33.177 15.033 52.439v.014c-.001 54.674-44.181 98.839-98.861 98.847z"/><path d="m257.857 348.717c-21.143-9.178-40.199-22.253-56.258-38.311-28.242-28.242-47.242-65.726-52.05-107.544 7.015-23.278 22.535-44.032 45.248-57.127 15.585-9.009 32.612-13.28 49.399-13.279 34.217-.007 67.649 17.614 85.977 49.377-54.659 0-99.158 44.47-99.151 99.136v.014c.007 26.213 10.197 50.035 26.835 67.734z"/><path d="m439.018 327.504c-7.594 1.824-15.401 2.758-23.264 2.758-16.702 0-33.616-4.229-49.137-13.145-47.419-27.21-63.661-87.872-36.444-135.284 18.328 31.763 51.47 49.674 85.687 49.667 16.794.007 33.814-4.271 49.406-13.272 22.953-13.251 38.587-34.316 45.474-57.891.834 7.043 1.266 14.22 1.259 21.496.006 59.602-28.681 112.5-72.981 145.671z"/></g><g fill="#fd435b"><path d="m330.173 181.833 98.861-98.861v.014c-.001 54.674-44.181 98.839-98.861 98.847z"/><path d="m231.022 280.983c.007 26.212 10.197 50.035 26.835 67.734-21.143-9.178-40.199-22.253-56.258-38.311z"/><path d="m439.018 327.504c-7.594 1.824-15.401 2.758-23.264 2.758-16.702 0-33.616-4.229-49.137-13.145-47.419-27.21-63.661-87.872-36.444-135.284 18.328 31.763 51.47 49.674 85.687 49.667 16.794.007 33.814-4.271 49.406-13.272 22.953-13.251 38.587-34.316 45.474-57.891.834 7.043 1.266 14.22 1.259 21.496.006 59.602-28.681 112.5-72.981 145.671z"/></g></g></svg>