<svg id="Layer_1" enable-background="new 0 0 512 512" height="512" viewBox="0 0 512 512" width="512" xmlns="http://www.w3.org/2000/svg"><g><g><g><path d="m451.886 314.466h-278.91v-266.566c55.83-99.808 405.69-58.521 278.91 266.566z" fill="#ff7e50"/><path d="m451.886 314.466c57.64-308.613-232.81-330.112-278.91-266.566 55.83-99.808 405.69-58.521 278.91 266.566z" fill="#ff6247"/><path d="m219.076 146.607v70.462l-41.67 97.396h-110.63c-.23-.481-.46-.971-.69-1.451-94-199.626 32.33-302.927 106.25-265.224 26.82 13.662 46.74 45.891 46.74 98.817z" fill="#ffa68a"/><g><g><path d="m466.896 501.431c-4.6 1.602-10.98 3.623-18.5 5.475-30.78 7.577-80.47 12.171-103.54-27.574v-123.149h93.45s-.4 1.541-.94 4.344c-3.31 17.055-11.91 81.042 31.89 131.997 2.57 2.981 1.36 7.616-2.36 8.907z" fill="#ff7e50"/><path d="m466.896 501.431c-4.6 1.602-10.98 3.623-18.5 5.475-49.51-50.745-22.21-122.598-11.03-146.379-3.31 17.055-11.91 81.042 31.89 131.997 2.57 2.981 1.36 7.616-2.36 8.907z" fill="#ff6247"/></g><g><path d="m51.674 501.431c4.6 1.602 10.98 3.623 18.5 5.475 30.78 7.577 80.47 12.171 103.54-27.574v-123.149h-93.45s.4 1.541.94 4.344c3.31 17.055 11.91 81.042-31.89 131.997-2.57 2.981-1.36 7.616 2.36 8.907z" fill="#ffa68a"/><path d="m51.674 501.431c4.6 1.602 10.98 3.623 18.5 5.475 49.51-50.745 22.21-122.598 11.03-146.379 3.31 17.055 11.91 81.042-31.89 131.997-2.57 2.981-1.36 7.616 2.36 8.907z" fill="#ff7e50"/></g></g><g fill="#fab684"><path d="m110.563 365.837c-9.425 2.157-20.128.472-29.441-5.492-17.2-11.015-23.142-32.453-13.273-47.884 8.215-12.844 24.797-17.477 40.045-12.316z"/><path d="m408.013 365.826c9.436 2.174 20.16.493 29.488-5.481 17.2-11.015 23.142-32.453 13.273-47.884-8.215-12.844-24.797-17.477-40.045-12.316z"/></g><path d="m259.286 512c-4.48 0-8.85-.15-13.11-.44h-.03c-153.57-10.369-160.44-202.939-121.07-257.117 29.69-40.866 94.21-47.902 94.21-99.388 0 51.486 144.52 58.522 174.21 99.388 40.46 55.679 32.08 257.557-134.21 257.557z" fill="#ffe8c8"/><path d="m259.286 512c-4.48 0-8.85-.15-13.11-.44 153.95-10.66 163.38-212.308 120.32-245.107-40.17-30.597-147.21-27.584-147.21-111.398 0 51.486 144.52 58.522 174.21 99.388 40.46 55.679 32.08 257.557-134.21 257.557z" fill="#fdd9b4"/><path d="m172.336 47.79c-32.88-5.064-169.05 87.778-104.49 264.674l-1.76.55c-94-199.626 32.33-302.927 106.25-265.224z" fill="#ff7e50"/></g></g><g fill="#fab684"><path d="m240.301 381.872c4.142 0 7.5-3.358 7.5-7.5 0-4.363 3.55-7.913 7.913-7.913s7.913 3.55 7.913 7.913c0 4.142 3.358 7.5 7.5 7.5s7.5-3.358 7.5-7.5c0-12.634-10.279-22.913-22.913-22.913s-22.913 10.279-22.913 22.913c0 4.142 3.357 7.5 7.5 7.5z"/><path d="m232.444 323.374c0-2.967-1.749-5.654-4.46-6.856l-66.611-29.527c-3.788-1.679-8.218.03-9.896 3.817-1.679 3.787.03 8.218 3.817 9.896l51.144 22.67-51.144 22.671c-3.787 1.679-5.496 6.109-3.817 9.896 1.241 2.799 3.984 4.462 6.86 4.462 1.015 0 2.048-.208 3.036-.646l66.611-29.527c2.711-1.202 4.46-3.89 4.46-6.856z"/><path d="m356.135 346.045-51.144-22.671 51.144-22.67c3.787-1.678 5.496-6.109 3.817-9.896-1.678-3.786-6.108-5.496-9.896-3.817l-66.611 29.527c-2.712 1.202-4.46 3.89-4.46 6.856s1.749 5.654 4.46 6.856l66.611 29.527c.988.438 2.02.646 3.036.646 2.876 0 5.62-1.664 6.86-4.462 1.679-3.787-.03-8.218-3.817-9.896z"/><path d="m318.384 415.9c-10.594 0-16.28 5.175-20.432 8.953-3.458 3.147-5.546 5.047-10.335 5.047-4.79 0-6.878-1.9-10.336-5.047-4.151-3.778-9.838-8.953-20.432-8.953-10.593 0-16.278 5.175-20.429 8.953-3.458 3.147-5.545 5.047-10.334 5.047-4.788 0-6.875-1.899-10.332-5.046-4.152-3.779-9.838-8.954-20.431-8.954-4.143 0-7.5 3.358-7.5 7.5s3.357 7.5 7.5 7.5c4.789 0 6.876 1.899 10.334 5.047 4.15 3.778 9.836 8.953 20.429 8.953s16.279-5.175 20.431-8.954c3.457-3.147 5.544-5.046 10.332-5.046 4.79 0 6.878 1.9 10.336 5.047 4.151 3.778 9.838 8.953 20.432 8.953 10.593 0 16.279-5.175 20.431-8.953 3.458-3.147 5.546-5.047 10.336-5.047 4.143 0 7.5-3.358 7.5-7.5s-3.358-7.5-7.5-7.5z"/></g></g></svg>