<svg id="Layer_1" enable-background="new 0 0 512 512" height="512" viewBox="0 0 512 512" width="512" xmlns="http://www.w3.org/2000/svg"><g><g><g><g><g><path d="m451.886 314.466h-278.91v-266.566c55.83-99.808 405.69-58.521 278.91 266.566z" fill="#ff7e50"/><path d="m451.886 314.466c57.64-308.613-232.81-330.112-278.91-266.566 55.83-99.808 405.69-58.521 278.91 266.566z" fill="#ff6247"/><path d="m219.076 146.607v70.462l-41.67 97.396h-110.63c-.23-.481-.46-.971-.69-1.451-94-199.626 32.33-302.927 106.25-265.224 26.82 13.662 46.74 45.891 46.74 98.817z" fill="#ffa68a"/><g><g><path d="m466.896 501.431c-4.6 1.602-10.98 3.623-18.5 5.475-30.78 7.577-80.47 12.171-103.54-27.574v-123.149h93.45s-.4 1.541-.94 4.344c-3.31 17.055-11.91 81.042 31.89 131.997 2.57 2.981 1.36 7.616-2.36 8.907z" fill="#ff7e50"/><path d="m466.896 501.431c-4.6 1.602-10.98 3.623-18.5 5.475-49.51-50.745-22.21-122.598-11.03-146.379-3.31 17.055-11.91 81.042 31.89 131.997 2.57 2.981 1.36 7.616-2.36 8.907z" fill="#ff6247"/></g><g><path d="m51.674 501.431c4.6 1.602 10.98 3.623 18.5 5.475 30.78 7.577 80.47 12.171 103.54-27.574v-123.149h-93.45s.4 1.541.94 4.344c3.31 17.055 11.91 81.042-31.89 131.997-2.57 2.981-1.36 7.616 2.36 8.907z" fill="#ffa68a"/><path d="m51.674 501.431c4.6 1.602 10.98 3.623 18.5 5.475 49.51-50.745 22.21-122.598 11.03-146.379 3.31 17.055 11.91 81.042-31.89 131.997-2.57 2.981-1.36 7.616 2.36 8.907z" fill="#ff7e50"/></g></g><g fill="#fab684"><path d="m110.563 365.837c-9.425 2.157-20.128.472-29.441-5.492-17.2-11.015-23.142-32.453-13.273-47.884 8.215-12.844 24.797-17.477 40.045-12.316z"/><path d="m408.013 365.826c9.436 2.174 20.16.493 29.488-5.481 17.2-11.015 23.142-32.453 13.273-47.884-8.215-12.844-24.797-17.477-40.045-12.316z"/></g><path d="m259.286 512c-4.48 0-8.85-.15-13.11-.44h-.03c-153.57-10.369-160.44-202.939-121.07-257.117 29.69-40.866 94.21-47.902 94.21-99.388 0 51.486 144.52 58.522 174.21 99.388 40.46 55.679 32.08 257.557-134.21 257.557z" fill="#ffe8c8"/><path d="m259.286 512c-4.48 0-8.85-.15-13.11-.44 153.95-10.66 163.38-212.308 120.32-245.107-40.17-30.597-147.21-27.584-147.21-111.398 0 51.486 144.52 58.522 174.21 99.388 40.46 55.679 32.08 257.557-134.21 257.557z" fill="#fdd9b4"/><path d="m172.336 47.79c-32.88-5.064-169.05 87.778-104.49 264.674l-1.76.55c-94-199.626 32.33-302.927 106.25-265.224z" fill="#ff7e50"/></g></g></g></g><g><g><g><path d="m329.336 293.599c-25.518 0-46.278 18.275-46.278 40.738 0 4.143 3.357 7.5 7.5 7.5s7.5-3.357 7.5-7.5c0-14.192 14.031-25.738 31.278-25.738 17.246 0 31.277 11.546 31.277 25.738 0 4.143 3.357 7.5 7.5 7.5s7.5-3.357 7.5-7.5c0-22.463-20.76-40.738-46.277-40.738z" fill="#fab684"/></g><g><g><g><g><g><path d="m239.742 317.721c0 12.693-7.397 23.924-18.696 30.669-7.06 4.227-15.638 6.7-24.902 6.7-24.07 0-43.586-16.74-43.586-37.37 0-20.641 19.517-37.37 43.586-37.37 9.084 0 17.515 2.383 24.497 6.464 11.534 6.713 19.101 18.057 19.101 30.907z" fill="#fff"/></g><path d="m239.742 317.721c0 12.693-7.397 23.924-18.696 30.669-16.357-.753-29.399-14.255-29.399-30.804 0-16.414 12.827-29.826 28.994-30.77 11.534 6.711 19.101 18.055 19.101 30.905z" fill="#003343"/></g></g></g></g></g><g fill="#fab684"><path d="m243.873 395.413c4.142 0 7.5-3.357 7.5-7.5 0-4.363 3.55-7.913 7.913-7.913s7.913 3.55 7.913 7.913c0 4.143 3.358 7.5 7.5 7.5s7.5-3.357 7.5-7.5c0-12.635-10.279-22.913-22.913-22.913s-22.913 10.278-22.913 22.913c0 4.143 3.358 7.5 7.5 7.5z"/><path d="m343.287 407.702c-2.921-2.937-7.669-2.949-10.606-.024-3.069 3.055-8.041 3.066-11.124.039-.043-.044-.086-.087-.129-.13-3.015-3.099-2.983-8.071.089-11.127 2.937-2.922 2.948-7.671.026-10.606-2.922-2.938-7.671-2.949-10.606-.026-7.455 7.419-8.728 18.735-3.805 27.485-10.611 15.654-28.398 25.199-47.488 25.199-20.684 0-39.84-11.207-49.994-29.249-2.032-3.608-6.605-4.889-10.214-2.857-3.61 2.031-4.889 6.604-2.858 10.215 12.807 22.756 36.973 36.892 63.066 36.892 23.44 0 45.323-11.406 58.815-30.221 2.762 1.12 5.701 1.68 8.64 1.68 5.849 0 11.699-2.22 16.163-6.662 2.936-2.923 2.947-7.672.025-10.608z"/></g></g></g></svg>