<?xml version="1.0" encoding="iso-8859-1"?>
<!-- Generator: Adobe Illustrator 19.0.0, SVG Export Plug-In . SVG Version: 6.00 Build 0)  -->
<svg version="1.1" id="Capa_1" xmlns="http://www.w3.org/2000/svg" xmlns:xlink="http://www.w3.org/1999/xlink" x="0px" y="0px"
	 viewBox="0 0 512 512" style="enable-background:new 0 0 512 512;" xml:space="preserve">
<path style="fill:#9CDD05;" d="M110.454,321.37c1.711-1.567,4.317-1.714,6.201-0.36c22.824,16.41,35.684,67.186,23.434,92.476
	c-1.011,2.088-3.373,3.199-5.624,2.636C91.568,405.388,77.841,351.241,110.454,321.37z"/>
<path style="fill:#94C609;" d="M124.302,328.222c-2.466-2.901-5.036-5.334-7.648-7.212c-1.884-1.354-4.49-1.207-6.201,0.36
	c-32.608,29.866-18.892,84.017,24.01,94.752c2.251,0.563,4.612-0.548,5.624-2.636c0.407-0.841,0.781-1.732,1.138-2.648
	C111.438,394.378,103.302,355.204,124.302,328.222z"/>
<path style="fill:#83AA2E;" d="M337.625,212.314c2.37-3.44,1.501-8.149-1.939-10.519c-3.44-2.369-8.15-1.501-10.519,1.939
	c-19.493,28.304-43.492,60.076-72.147,92.853l-2.542-30.875c-0.343-4.163-4-7.261-8.158-6.917c-4.163,0.343-7.26,3.995-6.917,8.158
	l3.721,45.196C172.176,385.546,93.558,449.444,4.053,496.37c-3.699,1.94-5.127,6.512-3.187,10.211
	c1.352,2.579,3.983,4.054,6.705,4.054c1.183,0,2.385-0.279,3.505-0.867c63.84-33.47,124.784-76.962,181.511-129.479
	c5.891-2.031,32.15-10.225,68.671-8.819c4.156,0.167,7.689-3.09,7.85-7.266c0.161-4.174-3.092-7.689-7.267-7.849
	c-18.678-0.721-34.824,0.89-47.384,3.036C259.688,314.785,301.126,265.31,337.625,212.314z"/>
<path style="fill:#9CDD05;" d="M329.58,413.715c30.055,1.827,57.188-13.413,71.993-37.343c1.738-2.81,1.253-6.495-1.142-8.771
	c-13.04-12.394-37.78-21.675-66.625-23.428s-54.527,4.464-68.972,15.187c-2.653,1.969-3.581,5.568-2.196,8.568
	C274.438,393.475,299.525,411.888,329.58,413.715z"/>
<path style="fill:#94C609;" d="M282.808,367.928c-1.385-2.999-0.457-6.598,2.196-8.568c11.067-8.216,28.734-13.781,49.361-15.149
	c-0.187-0.012-0.372-0.027-0.559-0.039c-28.845-1.753-54.527,4.464-68.972,15.188c-2.653,1.969-3.581,5.568-2.196,8.568
	c11.799,25.547,36.886,43.96,66.941,45.787c5.063,0.308,10.04,0.12,14.892-0.501C316.775,409.681,293.909,391.964,282.808,367.928z"
	/>
<path style="fill:#9CDD05;" d="M370.677,231.945c-8.984-2.411-17.479-7.138-24.516-14.205c-5.085-5.106-8.742-10.981-11.143-17.242
	c-6.645,0.902-13.554,0.516-20.475-1.491c-9.578-2.778-17.805-7.959-24.234-14.68c-12.216,1.01-22.611,4.593-28.859,9.642
	c-1.416,1.145-1.839,3.149-0.999,4.772c7.157,13.821,21.478,23.41,38.131,23.745c11.548,0.232,22.109-4.035,30.031-11.178
	c-2.461,10.379-1.13,21.692,4.621,31.709c8.293,14.445,23.583,22.401,39.142,22.039c1.826-0.042,3.382-1.376,3.705-3.168
	C377.509,253.982,375.658,243.144,370.677,231.945z"/>
<path style="fill:#94C609;" d="M290.129,213.048c-0.84-1.622-0.417-3.627,0.999-4.772c5.414-4.375,13.943-7.646,24.07-9.099
	c-0.219-0.06-0.437-0.108-0.655-0.171c-9.578-2.778-17.805-7.959-24.234-14.68c-12.216,1.01-22.611,4.593-28.859,9.642
	c-1.416,1.145-1.839,3.149-0.999,4.772c6.874,13.274,20.363,22.621,36.174,23.638C294.077,219.571,291.885,216.439,290.129,213.048z
	"/>
<path style="fill:#F37D79;" d="M508.212,99.848c-2.666-4.581-27.324-44.843-71.558-48.206c-4.268-0.223-8.58-0.164-12.816,0.176
	l-1.148,0.092l0.471,1.051c7.005,15.648,9.002,31.447,7.106,48.307l0.877,0.04c11.782,0.538,23.679,3.513,35.362,8.841l0.367,0.168
	l0.355-0.188c10.841-5.728,22.445-6.783,35.477-3.225C506.927,108.058,510.397,103.599,508.212,99.848z"/>
<path style="fill:#D86666;" d="M452.476,54.541c-4.96-1.457-10.233-2.474-15.823-2.899c-4.268-0.223-8.58-0.164-12.816,0.176
	l-1.148,0.092l0.471,1.051c7.005,15.648,9.002,31.447,7.106,48.307l0.877,0.04c9.334,0.426,18.74,2.407,28.055,5.851
	C461.04,88.852,458.784,71.19,452.476,54.541z"/>
<path style="fill:#F37D79;" d="M418.642,40.96c-24.19-37.169-71.346-39.455-76.643-39.593c-4.34-0.114-6.582,5.071-3.543,8.22
	c9.38,9.721,14.029,20.406,14.212,32.665l0.005,0.402l0.324,0.242c13.637,10.194,23.714,22.558,29.944,36.731
	c4.198,10.201,6.37,19.468,7.545,29.411l0.996-0.402c8.962-3.617,18.525-6.008,28.405-7.105c3.688-0.322,7.481-0.397,11.274-0.223
	l0.762,0.035C434.378,79.498,430.171,59.623,418.642,40.96z"/>
<path style="fill:#D86666;" d="M410.508,102.996c1.913-24.115-3.587-46.833-16.413-67.596
	c-9.597-14.746-22.207-24.898-35.017-31.915C350.3,1.71,343.78,1.414,341.999,1.367c-4.34-0.114-6.582,5.071-3.543,8.22
	c9.38,9.721,14.029,20.406,14.212,32.665l0.005,0.402l0.324,0.242c13.637,10.194,23.714,22.558,29.944,36.731
	c4.114,9.997,6.35,19.307,7.516,29.167c0.339-0.051,0.676-0.105,1.016-0.154l0.009-0.003
	C397.575,106.178,403.949,104.3,410.508,102.996z"/>
<path style="fill:#F37D79;" d="M343.8,146.676c13.018-17.726,29.06-30.524,47.682-38.039l0.576-0.232
	c-1.161-9.857-3.49-19.395-7.611-29.408c-20.694-47.084-74.317-58.577-80.363-59.731c-4.853-0.927-8.31,4.471-5.489,8.546
	c21.533,31.149,7.895,59.383-14.633,90.009l0.071,0.029c-16.953,26.497-7.863,61.237,18.513,76.865
	c3.932,2.33,8.219,4.207,12.806,5.537c6.757,1.959,13.752,2.469,20.787,1.514l1.017-0.138l-0.367-0.959
	C330.327,183.817,333.08,162.625,343.8,146.676z"/>
<path style="fill:#D86666;" d="M313.91,131.702l-0.071-0.029c22.829-31.392,38.597-61.765,17.161-94.276
	c-1.286-1.948-1.267-4.419,0.05-6.449c0.528-0.814,1.212-1.452,1.983-1.908c-14.308-6.729-26.277-9.266-28.949-9.776
	c-4.853-0.927-8.31,4.471-5.489,8.546c21.533,31.149,7.895,59.383-14.633,90.009l0.071,0.029
	c-16.953,26.497-7.863,61.237,18.513,76.865c3.932,2.33,8.219,4.207,12.806,5.537c0.929,0.269,1.863,0.505,2.801,0.72
	C301.715,182.318,299.671,154.049,313.91,131.702z"/>
<path style="fill:#F37D79;" d="M510.726,141.7c-3.917-4.747-39.75-46.26-91.009-41.792c-21.664,2.405-52.653,12.308-77.277,45.856
	c-13.392,19.922-16.495,52.272,4.132,72.986c3.371,3.385,7.075,6.243,11.008,8.573c26.325,15.597,61.186,6.961,76.309-20.683
	l0.077,0.062c15.307-34.399,34.961-59.933,71.9-56.082C510.802,151.136,513.867,145.507,510.726,141.7z"/>
<path style="fill:#D86666;" d="M370.903,162.627c27.904-38.017,75.307-57.751,121.144-38.743
	c-16.072-12.613-41.381-26.674-72.329-23.977c-21.664,2.405-52.653,12.308-77.277,45.856c-13.392,19.922-16.495,52.272,4.132,72.986
	c3.371,3.385,7.075,6.243,11.008,8.573c4.885,2.894,10.125,4.964,15.515,6.228C354.624,212.802,357.947,181.899,370.903,162.627z"/>
<g>
</g>
<g>
</g>
<g>
</g>
<g>
</g>
<g>
</g>
<g>
</g>
<g>
</g>
<g>
</g>
<g>
</g>
<g>
</g>
<g>
</g>
<g>
</g>
<g>
</g>
<g>
</g>
<g>
</g>
</svg>
