<?xml version="1.0" encoding="UTF-8" standalone="no"?>
<svg
   xmlns:dc="http://purl.org/dc/elements/1.1/"
   xmlns:cc="http://creativecommons.org/ns#"
   xmlns:rdf="http://www.w3.org/1999/02/22-rdf-syntax-ns#"
   xmlns:svg="http://www.w3.org/2000/svg"
   xmlns="http://www.w3.org/2000/svg"
   xmlns:sodipodi="http://sodipodi.sourceforge.net/DTD/sodipodi-0.dtd"
   xmlns:inkscape="http://www.inkscape.org/namespaces/inkscape"
   id="b26bef22-1f65-4f25-beb8-c3985f2c0abb"
   data-name="Layer 1"
   width="295.76199"
   height="368.29199"
   viewBox="0 0 295.76198 368.292"
   version="1.1"
   sodipodi:docname="my_feed.svg"
   inkscape:version="0.92.4 (5da689c313, 2019-01-14)">
  <metadata
     id="metadata34">
    <rdf:RDF>
      <cc:Work
         rdf:about="">
        <dc:format>image/svg+xml</dc:format>
        <dc:type
           rdf:resource="http://purl.org/dc/dcmitype/StillImage" />
        <dc:title></dc:title>
      </cc:Work>
    </rdf:RDF>
  </metadata>
  <defs
     id="defs32" />
  <sodipodi:namedview
     pagecolor="#ffffff"
     bordercolor="#666666"
     borderopacity="1"
     objecttolerance="10"
     gridtolerance="10"
     guidetolerance="10"
     inkscape:pageopacity="0"
     inkscape:pageshadow="2"
     inkscape:window-width="1366"
     inkscape:window-height="706"
     id="namedview30"
     showgrid="false"
     inkscape:zoom="1.8760111"
     inkscape:cx="185.03698"
     inkscape:cy="188.08083"
     inkscape:window-x="-8"
     inkscape:window-y="-8"
     inkscape:window-maximized="1"
     inkscape:current-layer="b26bef22-1f65-4f25-beb8-c3985f2c0abb" />
  <rect
     id="aa772a43-ca79-434e-998e-525da0608a2b"
     data-name="Rectangle 17"
     x="1.9050896"
     y="285.27692"
     width="293.76199"
     height="39.167999"
     style="fill:#e6e6e6" />
  <path
     id="b03a159e-94f4-480c-9a5d-9f23eb0385fc"
     data-name="Path 4"
     d="m 146.8001,46.94088 c -12.9,-21.792 -38.412,-22.807 -38.412,-22.807 0,0 -24.862997,-3.179 -40.812997,30.009 -14.866,30.934996 -35.384,60.79999 -3.3,68.04399 l 5.795,-18.036 3.589,19.378 a 125.5385,125.5385 0 0 0 13.726,0.235 c 34.355997,-1.109 67.073997,0.325 66.020997,-12 -1.40403,-16.391994 5.803,-43.85599 -6.606,-64.82299 z"
     inkscape:connector-curvature="0"
     style="fill:#2f2e41" />
  <path
     id="edc5401e-f5b9-4166-9a45-6d9296a0e0c2"
     data-name="Path 5"
     d="m 58.757093,253.86787 -43.494,30.2 c 0,0 -25.372,26.58 -7.2489997,26.58 18.1229997,0 25.3719997,-22.955 25.3719997,-22.955 l 55.576,-24.163 z"
     inkscape:connector-curvature="0"
     style="fill:#ffb8b8" />
  <path
     id="a1145783-9ad9-4920-9c36-7da703d314d6"
     data-name="Path 6"
     d="m 76.275083,136.07187 c 0,0 -38.057,117.8 -25.976,123.838 12.081,6.038 38.661,9.665 38.661,9.665 z"
     inkscape:connector-curvature="0"
     style="fill:#2f2e41" />
  <path
     id="a69c490e-693f-4e62-8a32-5b49f335d225"
     data-name="Path 7"
     d="m 76.275083,136.07187 c 0,0 -38.057,117.8 -25.976,123.838 12.081,6.038 38.661,9.665 38.661,9.665 z"
     style="opacity:0.1;isolation:isolate"
     inkscape:connector-curvature="0" />
  <path
     id="e424da1a-71ea-46da-8962-7b7b116f82e2"
     data-name="Path 8"
     d="m 195.92107,284.67987 h -85.672 l 60.868,-30.808 a 38.7974,38.7974 0 0 1 3.854,2.851 77.279,77.279 0 0 1 20.95,27.957 z"
     inkscape:connector-curvature="0"
     style="fill:#2f2e41" />
  <circle
     id="e1ba790b-7394-4885-ab4c-2c84c77f3e7f"
     data-name="Ellipse 1"
     cx="100.43909"
     cy="74.453873"
     r="31.412001"
     style="fill:#ffb8b8" />
  <path
     id="f3be7be2-223c-4c9b-8b5e-90f6ae9f04e0"
     data-name="Path 9"
     d="m 99.835093,100.42988 c 0,0 7.248997,22.95499 0,31.41299 -7.249,8.458 39.869997,-12.082 39.869997,-12.082 0,0 -16.914,-24.162994 -12.082,-35.036994 z"
     inkscape:connector-curvature="0"
     style="fill:#ffb8b8" />
  <path
     id="b8fe7dc2-df95-4ac5-a3bc-1c8e36bb8e76"
     data-name="Path 10"
     d="m 169.4231,205.31187 -2.537,16.54 c 0,0 1.281,3.757 2.839,9.231 2.03,7.14 4.531,17.2 5.243,25.637 0.737,8.554 -0.375,15.44 -5.666,15.875 -7.587,0.628 -11.538,5.231 -15.477,12.082 H 66.425103 c 0.23,-3.769 0.507,-7.684 0.834,-11.707 q 0.272,-3.625 0.6,-7.346 c 0.242,-2.851 8.8,-56.409 2.368,-67.935 -13.286,-23.8 3.625,-37.453 3.625,-37.453 0,0 2.416,-18.123 2.416,-24.163 0,-4.736 18.557,-10.209 26.579997,-12.36 0.52,-0.133 0.979,-0.266 1.4,-0.362 1.389,-0.362 2.223,-0.568 2.223,-0.568 l 6.343,-2.6 c 0,0 17.82,-3.443 19.029,-5.86 a 6.139,6.139 0 0 1 3.093,-2.2 c 2.549,-1.087 5.8,-1.861 6.573,-2.634 a 30.801,30.801 0 0 0 2.984,-4.06 16.14792,16.14792 0 0 1 8.892,-5.19999 c 12.976,-3.274004 31.618,3.21399 31.618,3.21399 l -6.524,42.588 z"
     inkscape:connector-curvature="0"
     style="fill:#2f2e41" />
  <path
     id="b7b1d332-0442-4c4a-aa9d-2d666bd52d71"
     data-name="Path 11"
     d="m 207.36306,178.96187 -43.494,30.2 c 0,0 -25.372,26.58 -7.249,26.58 18.123,0 25.36609,-22.951 25.36609,-22.951 l 55.576,-24.163 z"
     inkscape:connector-curvature="0"
     style="fill:#ffb8b8" />
  <path
     id="faae9d8a-2ade-475e-8bc6-8f0e7b87a797"
     data-name="Path 12"
     d="m 132.64109,44.83988 -25.208,-13.2 -15.809997,2.45 a 28.274,28.274 0 0 0 -23.24,21.7 l -2.96,13.058 17.929,-0.69 5.009,-11.687 v 11.494 l 8.273,-0.318 4.799997,-18.606 3,19.806 29.409,-0.6 z"
     inkscape:connector-curvature="0"
     style="fill:#2f2e41" />
  <path
     id="ba178fc8-375d-4438-9c01-c19893b0df8a"
     data-name="Path 13"
     d="m 176.55405,105.86687 8.457,-2.416 c 0,0 85.78,35.037 83.364,65.241 -2.416,30.204 1.208,30.2 -13.29,31.412 -14.498,1.212 -56.78,-13.29 -55.58,-15.706 1.2,-2.416 9.665,-14.5 9.665,-14.5 l -32.621,-25.372 z"
     inkscape:connector-curvature="0"
     style="fill:#2f2e41" />
  <circle
     id="b052f10f-e5c3-45aa-968a-35c6c5894796"
     data-name="Ellipse 2"
     cx="131.85211"
     cy="74.454872"
     r="4.8330002"
     style="fill:#ffb8b8" />
</svg>
