<?xml version="1.0" encoding="iso-8859-1"?>
<!-- Generator: Adobe Illustrator 21.0.0, SVG Export Plug-In . SVG Version: 6.00 Build 0)  -->
<svg xmlns="http://www.w3.org/2000/svg" xmlns:xlink="http://www.w3.org/1999/xlink" version="1.1" id="Capa_1" x="0px" y="0px" viewBox="0 0 512 512" style="enable-background:new 0 0 512 512;" xml:space="preserve" width="512" height="512">
<g>
	<g>
		<path style="fill:#D1D1D1;" d="M200.346,50.626c0,0-20.579-43.96-56.617-50.236S25.465,63.974,5.495,178.659    s16.54,166.529,76.379,176.949S200.346,50.626,200.346,50.626z"/>
	</g>
	<g>
		<path style="fill:#D1D1D1;" d="M311.655,50.626c0,0,20.578-43.96,56.617-50.236s118.264,63.584,138.234,178.269    c19.97,114.685-16.54,166.529-76.379,176.949S311.655,50.626,311.655,50.626z"/>
	</g>
	<g>
		<path style="fill:#D1D1D1;" d="M89.748,512c0-91.818,74.434-166.252,166.252-166.252S422.252,420.182,422.252,512H89.748z"/>
	</g>
	<g>
		<g>
			<path style="fill:#F4F4F4;" d="M66.494,218.969c0.017,104.482,125.348,123.811,189.51,123.811s189.49-19.327,189.51-123.806     c0,0.466,0.003,0.925,0.004,1.39c0-0.476-0.004-0.946-0.004-1.423c0-0.001,0-0.003,0-0.004     c0-104.497-85.014-189.51-189.51-189.51s-189.51,85.014-189.51,189.51c0,1.417-0.008,2.818-0.012,4.228     C66.486,221.766,66.494,220.376,66.494,218.969z"/>
		</g>
	</g>
	<g>
		<path style="fill:#E3E3E3;" d="M128.305,218.969c0,1.407-0.008,2.797-0.012,4.196c0.004-1.41,0.012-2.811,0.012-4.228    c0-93.973,68.758-172.176,158.605-186.977c-10.061-1.657-20.382-2.534-30.905-2.534c-104.497,0-189.51,85.014-189.51,189.51    c0,1.417-0.008,2.818-0.012,4.228c0.004-1.399,0.012-2.79,0.012-4.196c0.017,104.482,125.348,123.811,189.51,123.811    c9.222,0,19.711-0.403,30.906-1.397C220.213,335.462,128.319,308.435,128.305,218.969z"/>
	</g>
	<g>
		<path style="fill:#FB695B;" d="M296.494,274.689l-36.738,36.738c-2.075,2.075-5.438,2.075-7.513,0l-36.738-36.738    c-22.364-22.364-58.624-22.364-80.988,0l0,0c-22.364,22.364-22.364,58.624,0,80.988l107.298,107.298    c7.834,7.834,20.536,7.834,28.37,0l107.298-107.298c22.364-22.364,22.364-58.624,0-80.988l0,0    C355.118,252.325,318.859,252.325,296.494,274.689z"/>
	</g>
	<g>
		<g>
			<path style="fill:#F85647;" d="M216.932,355.678c-22.125-22.125-22.347-57.841-0.695-80.257l-0.731-0.731     c-22.364-22.364-58.624-22.364-80.988,0l0,0c-22.364,22.364-22.364,58.624,0,80.988l107.298,107.298     c7.834,7.834,20.536,7.834,28.37,0l27.022-27.022L216.932,355.678z"/>
		</g>
	</g>
	<g>
		<circle style="fill:#F4F4F4;" cx="402.792" cy="383.852" r="84.999"/>
	</g>
	<g>
		<path style="fill:#E3E3E3;" d="M360.03,383.852c0-39.653,27.154-72.961,63.88-82.352c-6.753-1.727-13.828-2.647-21.119-2.647    c-46.944,0-84.999,38.055-84.999,84.999s38.055,84.999,84.999,84.999c7.291,0,14.366-0.921,21.119-2.647    C387.184,456.813,360.03,423.505,360.03,383.852z"/>
	</g>
	<g>
		<circle style="fill:#F4F4F4;" cx="109.208" cy="383.852" r="84.999"/>
	</g>
	<g>
		<path style="fill:#E3E3E3;" d="M65.416,383.852c0-39.837,27.41-73.26,64.395-82.471c-6.598-1.643-13.497-2.529-20.604-2.529    c-46.944,0-84.999,38.055-84.999,84.999s38.055,84.999,84.999,84.999c7.107,0,14.005-0.885,20.604-2.529    C92.826,457.111,65.416,423.689,65.416,383.852z"/>
	</g>
	<g>
		<g>
			<g>
				<path style="fill:#454545;" d="M281.01,149.453c-9.233,0-17.98-3.158-25.01-8.963c-7.029,5.805-15.776,8.963-25.01,8.963      c-4.143,0-7.5-3.357-7.5-7.5s3.357-7.5,7.5-7.5c6.507,0,12.623-2.534,17.224-7.135l2.482-2.482c2.93-2.928,7.678-2.928,10.607,0      l2.482,2.482c4.601,4.601,10.717,7.135,17.224,7.135c4.143,0,7.5,3.357,7.5,7.5S285.152,149.453,281.01,149.453z"/>
			</g>
			<g>
				<path style="fill:#454545;" d="M321.611,137.642c-4.143,0-7.5-3.357-7.5-7.5v-11.698c0-4.143,3.357-7.5,7.5-7.5      s7.5,3.357,7.5,7.5v11.698C329.111,134.284,325.754,137.642,321.611,137.642z"/>
			</g>
			<g>
				<path style="fill:#454545;" d="M190.389,137.642c-4.143,0-7.5-3.357-7.5-7.5v-11.698c0-4.143,3.357-7.5,7.5-7.5      s7.5,3.357,7.5,7.5v11.698C197.889,134.284,194.531,137.642,190.389,137.642z"/>
			</g>
			<g>
				<path style="fill:#FB695B;" d="M327.461,159.755h-11.698c-4.143,0-7.5-3.357-7.5-7.5s3.357-7.5,7.5-7.5h11.698      c4.143,0,7.5,3.357,7.5,7.5S331.604,159.755,327.461,159.755z"/>
			</g>
			<g>
				<path style="fill:#FB695B;" d="M196.237,159.755h-11.698c-4.143,0-7.5-3.357-7.5-7.5s3.357-7.5,7.5-7.5h11.698      c4.143,0,7.5,3.357,7.5,7.5S200.38,159.755,196.237,159.755z"/>
			</g>
		</g>
	</g>
</g>















</svg>
