<svg id="Layer_1" enable-background="new 0 0 512 512" height="512" viewBox="0 0 512 512" width="512" xmlns="http://www.w3.org/2000/svg"><g><g><g><g id="XMLID_1629_"><path d="m426.003 512c-13.293 0-24.07-10.776-24.07-24.069v-192.391c0-13.293 10.777-24.069 24.07-24.069s24.07 10.776 24.07 24.069v192.391c0 13.293-10.777 24.069-24.07 24.069z" fill="#ffa587"/></g><g id="XMLID_1618_"><path d="m385.336 512c-13.293 0-24.07-10.776-24.07-24.069v-192.391c0-13.293 10.777-24.069 24.07-24.069s24.07 10.776 24.07 24.069v192.391c0 13.293-10.778 24.069-24.07 24.069z" fill="#ffb69e"/></g></g><path id="XMLID_1576_" d="m358.117 128.796c2.246-12.275 12.199-21.147 23.766-21.147h41.908c11.591 0 21.515 8.847 23.766 21.147l37.044 202.456c.599 3.271-.19 6.659-2.145 9.237-1.956 2.578-4.877 4.082-7.96 4.082-31.308 0-112.033 0-143.319 0-3.084 0-6.006-1.495-7.963-4.074s-2.74-5.971-2.142-9.244z" fill="#ff6473"/><ellipse cx="402.837" cy="50.634" fill="#ffb69e" rx="41.571" ry="41.571" transform="matrix(.973 -.23 .23 .973 -.857 93.908)"/><g id="XMLID_1566_"><path d="m350.904 209.173-73.444-16.446c-10.153-2.274-16.54-12.347-14.267-22.499s12.352-16.539 22.499-14.266l63.851 14.298 19.401-17.776 22.604 7.374 2.79 20.458-26.592 24.365c-4.524 4.144-10.808 5.843-16.842 4.492z" fill="#ffb69e"/></g><g id="XMLID_536_"><path d="m426.107 125.656c-7.029-7.671-18.944-8.192-26.616-1.163l-30.548 27.99 25.394 27.832 30.606-28.043c7.671-7.028 8.193-18.945 1.164-26.616z" fill="#f05463"/></g></g><g><g id="XMLID_1641_"><path d="m51.82 512c-13.362 0-24.577-10.812-24.617-24.183v-193.846c-.041-13.397 10.561-24.289 23.957-24.33h.076c13.362 0 24.802 10.812 24.843 24.183v193.846c.041 13.397-10.786 24.289-24.183 24.33-.025 0-.052 0-.076 0z" fill="#5f6e9b"/></g><g><path d="m227.873 206.932c-4.165 0-7.541-3.376-7.541-7.541v-103.376c0-4.165 3.376-7.541 7.541-7.541s7.541 3.376 7.541 7.541v103.376c0 4.165-3.376 7.541-7.541 7.541z" fill="#64822d"/></g><path d="m245.508 56.322-15.89 11.918c-1.034.775-2.456.775-3.49 0l-15.891-11.918c-1.917-1.438-4.653-.07-4.653 2.326v24.236c0 12.309 9.979 22.288 22.288 22.288 12.309 0 22.288-9.979 22.288-22.288v-24.236c.001-2.396-2.735-3.764-4.652-2.326z" fill="#e64937"/><g id="XMLID_1645_"><path d="m111.588 512c-13.397.001-24.257-10.859-24.258-24.255l-.017-196.151s10.924-15.988 24.321-15.99c13.397-.001 24.321 15.99 24.321 15.99v196.147c0 13.397-10.97 24.258-24.367 24.259z" fill="#414b82"/></g><path d="m127.833 112.402c-5.339-5.347-12.586-8.351-20.142-8.351h-52.091c-15.722 0-28.398 12.745-28.398 28.467v159.076h108.752l.204-159.04c.01-7.556-2.985-14.806-8.325-20.152z" fill="#64afff"/><circle cx="95.691" cy="45.284" fill="#ffb69e" r="45.284"/><path d="m246.622 157.135c-1.174-11.392-11.353-19.672-22.752-18.501l-73.298 7.554-26.899-10.506-17.654 16.39 1.186 21.702 32.955 12.872c2.41.941 4.968 1.421 7.544 1.421.708 0 1.418-.036 2.126-.109l78.292-8.069c11.391-1.176 19.674-11.363 18.5-22.754z" fill="#ffb69e"/><path d="m123.673 135.681-47.587-18.587c-10.666-4.166-22.692 1.104-26.858 11.771-4.167 10.668 1.104 22.693 11.771 26.859l46.208 18.048z" fill="#4699f2"/></g></g></svg>