<svg id="Capa_1" enable-background="new 0 0 512 512" height="512" viewBox="0 0 512 512" width="512" xmlns="http://www.w3.org/2000/svg"><g><path d="m216 512h-35.001l-15-20-15 20h-34.999c-7.718 0-14.176-5.856-14.929-13.537l-10-102c-.413-4.212.974-8.403 3.816-11.539 2.844-3.135 6.881-4.924 11.113-4.924h120c4.232 0 8.269 1.789 11.112 4.924 2.843 3.136 4.229 7.327 3.816 11.539l-10 102c-.752 7.681-7.21 13.537-14.928 13.537z" fill="#ffddce"/><path d="m226 380h-60v112.001l14.999 19.999h35.001c7.718 0 14.176-5.856 14.929-13.537l10-102c.413-4.212-.974-8.403-3.816-11.539-2.844-3.135-6.881-4.924-11.113-4.924z" fill="#ffbca7"/><path d="m150.999 380h30v132h-30z" fill="#ffbca7"/><path d="m166 380h14.999v132h-14.999z" fill="#dd9080"/><path d="m416 512h-120c-8.284 0-15-6.716-15-15v-182c0-8.284 6.716-15 15-15h120c8.284 0 15 6.716 15 15v182c0 8.284-6.716 15-15 15z" fill="#ff8659"/><path d="m356 375v122" style="fill:none;stroke:#000;stroke-width:30;stroke-linecap:round;stroke-linejoin:round;stroke-miterlimit:10"/><path d="m416 512h-120c-8.284 0-15-6.716-15-15v-182c0-8.284 6.716-15 15-15h120c8.284 0 15 6.716 15 15v182c0 8.284-6.716 15-15 15z" fill="#0d8ebc"/><path d="m416 300h-60v212h60c8.284 0 15-6.716 15-15v-182c0-8.284-6.716-15-15-15z" fill="#0a617d"/><path d="m371 512h-30v-137c0-8.284 6.716-15 15-15 8.284 0 15 6.716 15 15z" fill="#0a617d"/><path d="m371 375c0-8.284-6.716-15-15-15v152h15z" fill="#05303d"/><path d="m446 330h-180c-8.284 0-15-6.716-15-15v-40.233l-45.979-85.767h-154.521c-16.292 0-29.5-13.208-29.5-29.5 0-16.292 13.208-29.5 29.5-29.5h175.921c10.156 0 20.095-2.816 28.81-8.031 24.019-14.373 51.505-21.969 79.499-21.969h21.27c57.99 0 105 47.01 105 105v110c0 8.284-6.716 15-15 15z" fill="#acceff"/><path d="m446 330c8.284 0 15-6.716 15-15v-110c0-57.99-47.01-105-105-105v230z" fill="#989dec"/><path d="m246 410h-160c-8.284 0-15-6.716-15-15v-80c0-8.284 6.716-15 15-15h160c8.284 0 15 6.716 15 15v80c0 8.284-6.716 15-15 15z" fill="#0d8ebc"/><path d="m246 300h-80v110h80c8.284 0 15-6.716 15-15v-80c0-8.284-6.716-15-15-15z" fill="#0a617d"/><g><path d="m266.033 188.324h-200.066c-9.521 16.738-14.967 36.082-14.967 56.676v70c0 8.284 6.716 15 15 15h200c8.284 0 15-6.716 15-15v-70c0-20.594-5.446-39.938-14.967-56.676z" fill="#ff8659"/><path d="m166 188.324v141.676h100c8.284 0 15-6.716 15-15v-70c0-20.594-5.446-39.938-14.967-56.676z" fill="#ff405c"/><path d="m107.667 206.833c5.439 0 10.864-.822 16.107-2.419 10.593 12.013 25.825 19.086 42.226 19.086s31.633-7.073 42.226-19.086c5.243 1.597 10.668 2.419 16.107 2.419 15.742 0 30.932-6.746 41.7-18.509-19.794-34.8-57.216-58.324-100.033-58.324s-80.239 23.524-100.033 58.324c10.768 11.763 25.958 18.509 41.7 18.509z" fill="#f9f9f9"/><g><path d="m208.226 204.414c5.243 1.597 10.668 2.419 16.107 2.419 15.742 0 30.932-6.746 41.7-18.509-19.794-34.8-57.216-58.324-100.033-58.324v93.5c16.401 0 31.633-7.073 42.226-19.086z" fill="#e2dff4"/></g></g><path d="m116 15c-16.569 0-30 13.431-30 30 0 16.568 13.431 30 30 30 1.53 0 2.998-.229 4.466-.45l25.084-25.084c.221-1.468.45-2.936.45-4.466 0-16.569-13.431-30-30-30z" fill="#e2dff4"/><path d="m356 115c-31.706 0-57.5-25.795-57.5-57.5s25.794-57.5 57.5-57.5 57.5 25.795 57.5 57.5-25.794 57.5-57.5 57.5z" fill="#ffddce"/><path d="m356 0v115c31.706 0 57.5-25.795 57.5-57.5s-25.794-57.5-57.5-57.5z" fill="#ffbca7"/><path d="m497 512c-8.284 0-15-6.716-15-15v-152c0-8.271-6.729-15-15-15h-20c-8.284 0-15-6.716-15-15s6.716-15 15-15h20c24.813 0 45 20.187 45 45v152c0 8.284-6.716 15-15 15z" fill="#6b5c59"/><path d="m166 145c-31.705 0-57.5-25.794-57.5-57.5s25.795-57.5 57.5-57.5 57.5 25.794 57.5 57.5-25.795 57.5-57.5 57.5z" fill="#ffddce"/><path d="m166 30v115c31.705 0 57.5-25.794 57.5-57.5s-25.795-57.5-57.5-57.5z" fill="#ffbca7"/><path d="m15 512c-8.284 0-15-6.716-15-15v-152c0-24.813 20.187-45 45-45h21c8.284 0 15 6.716 15 15s-6.716 15-15 15h-21c-8.271 0-15 6.729-15 15v152c0 8.284-6.716 15-15 15z" fill="#9d5e4a"/></g></svg>