<?xml version="1.0" encoding="iso-8859-1"?>
<!-- Generator: Adobe Illustrator 18.0.0, SVG Export Plug-In . SVG Version: 6.00 Build 0)  -->
<!DOCTYPE svg PUBLIC "-//W3C//DTD SVG 1.1//EN" "http://www.w3.org/Graphics/SVG/1.1/DTD/svg11.dtd">
<svg version="1.1" id="Capa_1" xmlns="http://www.w3.org/2000/svg" xmlns:xlink="http://www.w3.org/1999/xlink" x="0px" y="0px"
	 viewBox="0 0 495.716 495.716" style="enable-background:new 0 0 495.716 495.716;" xml:space="preserve">
<g>
	<path d="M87.967,114.693c9,7.293,20.592,10.999,34.477,10.999c30.108,0,54.603-24.494,54.603-54.603
		c0-14.326-4.7-26.482-13.951-36.213c1.639-2.188,2.546-4.431,2.765-6.773c0.742-7.946-6.835-13.884-12.599-17.659
		C142.678,3.514,131.221,0,119.207,0c-7.077,0-14.356,1.237-21.635,3.678C85.137,7.846,68.922,18.36,60.705,35.373
		c-6.606,13.678-6.944,28.931-1.003,45.335C68.099,103.895,84.758,113.102,87.967,114.693z M167.178,82.229h-11.573
		c-10.034,0-18.197,8.164-18.197,18.199v5.404c0,2.348,1.902,4.25,4.25,4.25c2.348,0,4.25-1.902,4.25-4.25v-5.404
		c0-5.349,4.351-9.699,9.697-9.699h8.538c-1.247,2.637-2.738,5.136-4.442,7.471h-6.338c-2.348,0-4.25,1.902-4.25,4.25
		c0,1.862,1.205,3.427,2.871,4.002c-8.006,6.699-18.309,10.741-29.54,10.741c-10.558,0-19.47-2.416-26.552-7.188
		c3.467-8.435-0.636-20.944-1.638-23.735c-0.445-1.243-1.443-2.208-2.7-2.611c-3.552-1.142-5.938-4.417-5.938-8.152
		c0-4.719,3.84-8.559,8.559-8.559c4.719,0,8.559,3.84,8.559,8.559v18.993c0,2.348,1.902,4.25,4.25,4.25h12.368
		c2.237,0,4.092-1.735,4.24-3.968c0.103-1.534-0.135-3.432-0.464-6.058c-1.858-14.841-2.23-31.343,16.993-39.328
		c7.142-2.966,12.664-5.84,16.749-8.737c7.841,8.189,11.676,18.175,11.676,30.432C168.546,74.93,168.066,78.659,167.178,82.229z
		 M68.358,39.07c7.069-14.636,21.121-23.716,31.915-27.334c6.407-2.148,12.777-3.236,18.934-3.236
		c10.331,0,20.222,3.047,29.397,9.056c5.896,3.862,9.018,7.327,8.792,9.758c-0.166,1.784-2.501,6.741-20.535,14.232
		c-26.813,11.138-23.558,37.133-22.168,48.234c0.021,0.156,0.04,0.313,0.06,0.469h-3.52V75.506c0-9.406-7.652-17.059-17.059-17.059
		c-9.406,0-17.059,7.652-17.059,17.059c0,6.673,3.825,12.611,9.721,15.407c1.368,4.505,2.388,10.457,1.686,14.246
		c-5.252-3.503-15.211-11.835-20.828-27.346C62.562,63.644,62.786,50.608,68.358,39.07z"/>
	<path d="M328.06,137.513c6.836,2.875,14.212,4.355,21.587,4.355c1.237,0,2.472-0.056,3.706-0.139
		c9.392,4.902,22.905,8.828,44.776,10.233c0.092,0.006,0.183,0.009,0.274,0.009c1.711,0,3.268-1.031,3.927-2.63
		c1.233-2.99,29.78-73.63-6.451-107.866c-6.538-6.176-17.081-14.441-33.436-15.754c-3.964-2.126-18.825-9.31-29.482-3.888
		c-5.318,2.709-8.522,7.889-9.539,15.393c-11.237,5.994-20.093,15.678-25.054,27.476c-5.76,13.69-5.843,28.804-0.233,42.557
		C303.742,121.01,314.37,131.754,328.06,137.513z M390.042,47.653c28.222,26.668,10.306,82.396,5.509,95.603
		c-34.461-2.719-44.885-12.299-53.595-21.006c16.827-9.866,26.259-28.415,27.384-54.067c0.603-13.743-1.292-26.255-2.696-33.35
		C377.44,36.916,384.737,42.643,390.042,47.653z M331.751,39.059c0.552-5.035,2.206-8.19,5.058-9.646
		c5.773-2.944,15.754,0.85,20.683,3.319c1.616,7.021,6.927,33.844-0.203,56.245c-2.772-6.36-7.242-12.2-11.64-17.92
		C337.814,60.865,330.416,51.24,331.751,39.059z M306.202,67.997c3.607-8.577,9.641-15.839,17.294-20.935
		c1.74,11.377,8.921,20.728,15.413,29.174c6.521,8.481,12.672,16.512,12.621,25.228c-4.216,6.583-10.162,12.148-18.454,15.786
		c-1.303,0.571-2.233,1.759-2.478,3.161c-0.245,1.402,0.228,2.834,1.262,3.813c1.127,1.07,2.228,2.174,3.346,3.295
		c1.603,1.605,3.238,3.245,5.017,4.878c-3.029-0.617-6.006-1.517-8.867-2.721c-11.596-4.877-20.6-13.979-25.351-25.629
		C301.252,92.397,301.322,79.595,306.202,67.997z"/>
	<path d="M440.058,350.256l-47.973-162.497c-7.045-24.39-28.015-40.843-49.859-39.101c-2.461,0.173-32.91,3.024-40.96,36.599
		c-0.186,0.78-0.131,1.558,0.096,2.27l-58.802,29.114l-78.357-50.113c-0.035-0.277-0.098-0.555-0.19-0.829
		c-7.553-22.355-27.561-37.968-48.658-37.968h-7.532c-24.143,0-42.837,21.113-44.45,50.202
		c-1.771,31.915-0.024,128.057-0.006,129.023c0.043,2.316,1.933,4.172,4.249,4.172H80.08v152.249
		c0,17.832,14.507,32.339,32.339,32.339c17.832,0,32.339-14.507,32.339-32.339V311.128h23.909c1.163,0,2.274-0.477,3.077-1.318
		c0.802-0.842,1.224-1.976,1.168-3.137l-3.528-73.113l46.522,29.753c4.061,2.597,8.707,4.029,13.491,4.198
		c3.289,1.535,6.847,2.314,10.405,2.314c3.717,0,7.43-0.84,10.827-2.522l41.283-20.439L277.36,363.172
		c-0.159,1.268,0.262,2.54,1.145,3.464c0.805,0.842,1.916,1.314,3.072,1.314c0.111,0,0.224-0.005,0.336-0.014l44.245-3.508v100.116
		c0,15.753,12.816,28.568,28.569,28.568c15.752,0,28.567-12.815,28.567-28.568V359.898l53.022-4.203
		c1.277-0.101,2.44-0.772,3.166-1.828C440.209,352.812,440.42,351.484,440.058,350.256z M297.114,234.804
		c-1.306,0.018-2.494,0.632-3.271,1.619L251.3,257.486c0.594-0.742,1.159-1.512,1.679-2.323c3.863-6.04,5.143-13.222,3.603-20.225
		c-1.046-4.757-3.311-9.042-6.549-12.513l66.07-32.713c7.905-3.912,17.517-0.664,21.43,7.235c3.912,7.902,0.667,17.514-7.234,21.426
		L297.114,234.804z M112.419,487.216c-13.145,0-23.839-10.694-23.839-23.839v-10.979h47.678v10.979
		C136.258,476.522,125.563,487.216,112.419,487.216z M136.258,423.987h-7.415c-2.348,0-4.25,1.902-4.25,4.25
		c0,2.348,1.902,4.25,4.25,4.25h7.415v11.411H88.58V311.128h8.788v59.39c0,2.348,1.902,4.25,4.25,4.25c2.348,0,4.25-1.902,4.25-4.25
		v-59.39h30.39V423.987z M162.291,262.934h-13.34c-2.348,0-4.25,1.902-4.25,4.25c0,2.348,1.902,4.25,4.25,4.25h13.75l0.491,10.166
		h-54.908c-2.348,0-4.25,1.902-4.25,4.25c0,2.348,1.902,4.25,4.25,4.25h55.318l0.604,12.528H71.792
		c-0.313-18.867-1.478-96.413,0.065-124.225c1.378-24.831,16.167-42.173,35.964-42.173h7.532c13.869,0,27.637,8.777,35.767,21.93
		l-17.848-11.414c-4.329-2.768-9.322-4.232-14.439-4.232c-9.213,0-17.674,4.629-22.633,12.382
		c-7.974,12.469-4.317,29.099,8.149,37.072l56.253,35.976L162.291,262.934z M108.93,184.808c-8.52-5.449-11.018-16.813-5.569-25.332
		c3.39-5.299,9.174-8.462,15.473-8.462c3.491,0,6.9,1.001,9.859,2.893l111.557,71.347c4.127,2.639,6.979,6.727,8.03,11.512
		c1.052,4.784,0.178,9.691-2.461,13.818c-3.389,5.299-9.173,8.462-15.472,8.462c-3.492,0-6.901-1-9.86-2.893L108.93,184.808z
		 M374.795,464.544c0,11.065-9.002,20.068-20.067,20.068c-0.32,0-0.633-0.033-0.949-0.048v-61.554c0-2.348-1.902-4.25-4.25-4.25
		c-2.348,0-4.25,1.902-4.25,4.25v59.228c-6.314-3.385-10.62-10.045-10.62-17.695v-100.79l40.137-3.182V464.544z M286.442,359.05
		l3.646-29.136l85.73-6.651c2.34-0.182,4.09-2.225,3.908-4.566c-0.182-2.34-2.222-4.093-4.566-3.908l-83.995,6.517l9.879-78.963
		l33.025-16.35c12.101-5.991,17.071-20.711,11.08-32.814c-5.992-12.101-20.716-17.068-32.817-11.082l-1.522,0.754
		c8.235-24.226,30.93-25.658,31.932-25.708c0.053-0.002,0.104-0.005,0.156-0.01c17.875-1.407,35.093,12.459,41.028,33.011
		l46.496,157.495L286.442,359.05z"/>
	<path d="M232.369,174.504c0.249,0.044,0.497,0.065,0.742,0.065c1.532,0,2.973-0.831,3.727-2.209
		c1.338-2.442,12.9-24.215,7.071-36.303c-2.42-5.015-7.391-8.13-12.973-8.13c-2.189,0-4.303,0.485-6.286,1.441
		c-3.571,1.723-6.112,4.735-7.334,8.211c-1.501-0.525-3.098-0.808-4.729-0.808c-2.18,0-4.285,0.483-6.259,1.435
		c-7.162,3.455-10.184,12.08-6.737,19.228C205.367,169.408,229.623,174.019,232.369,174.504z M210.021,145.863
		c0.811-0.392,1.675-0.591,2.565-0.591c2.297,0,4.343,1.284,5.34,3.352c1.02,2.113,3.558,3.001,5.675,1.981
		c1.52-0.733,2.405-2.252,2.404-3.833c0-0.618-0.136-1.247-0.423-1.842c-1.419-2.94-0.181-6.487,2.761-7.905
		c0.821-0.396,1.693-0.598,2.593-0.598c2.291,0,4.328,1.273,5.316,3.322c2.651,5.498-1.513,17.689-5.448,25.767
		c-8.788-1.983-20.935-6.338-23.558-11.773C205.836,150.816,207.08,147.281,210.021,145.863z"/>
	<path d="M253.534,89.365c0.77,0.611,1.704,0.92,2.641,0.92c0.802,0,1.604-0.226,2.31-0.683c2.338-1.514,22.86-15.177,23.475-28.582
		c0.178-3.851-1.162-7.535-3.771-10.376c-2.599-2.83-6.147-4.485-9.992-4.66c-3.988-0.198-7.648,1.256-10.361,3.721
		c-2.595-2.825-6.13-4.477-9.962-4.65c-0.225-0.011-0.448-0.016-0.67-0.016c-7.721,0-14.044,6.032-14.395,13.731
		C232.197,72.051,251.349,87.633,253.534,89.365z M247.203,53.539c0.093,0,0.188,0.002,0.282,0.006
		c1.579,0.072,3.036,0.756,4.102,1.924c1.066,1.168,1.614,2.683,1.542,4.263c-0.004,0.066-0.005,0.133-0.005,0.198
		c0,2.258,1.777,4.138,4.056,4.241c2.358,0.138,4.333-1.706,4.439-4.051c0.15-3.262,2.849-5.775,6.189-5.646
		c1.587,0.073,3.051,0.754,4.12,1.919c1.065,1.16,1.613,2.665,1.541,4.237c-0.28,6.098-9.737,14.845-17.04,20.083
		c-6.789-5.921-15.406-15.523-15.13-21.555C241.443,56.008,244.036,53.539,247.203,53.539z"/>
	<path d="M370.291,195.878c-2.296,0.488-3.762,2.745-3.273,5.041l17,80c0.425,1.998,2.189,3.367,4.153,3.367
		c0.292,0,0.59-0.03,0.888-0.094c2.296-0.488,3.762-2.745,3.273-5.041l-17-80C374.844,196.857,372.59,195.385,370.291,195.878z"/>
	<path d="M85.175,202.785c-2.348,0-4.25,1.902-4.25,4.25v25c0,2.348,1.902,4.25,4.25,4.25c2.348,0,4.25-1.902,4.25-4.25v-25
		C89.425,204.688,87.522,202.785,85.175,202.785z"/>
</g>
<g>
</g>
<g>
</g>
<g>
</g>
<g>
</g>
<g>
</g>
<g>
</g>
<g>
</g>
<g>
</g>
<g>
</g>
<g>
</g>
<g>
</g>
<g>
</g>
<g>
</g>
<g>
</g>
<g>
</g>
</svg>
