<svg height="512" viewBox="0 0 128 128" width="512" xmlns="http://www.w3.org/2000/svg" xmlns:xlink="http://www.w3.org/1999/xlink"><linearGradient id="a" gradientUnits="userSpaceOnUse" x1="106.546" x2="26.076" y1="99.423" y2="18.953"><stop offset="0" stop-color="#fa5e97"/><stop offset="1" stop-color="#737ee6"/></linearGradient><path d="m34.827 57.792a26.8 26.8 0 0 1 -3.8-4.57 1.75 1.75 0 0 1 2.925-1.922 23.4 23.4 0 0 0 3.3 3.975 1.749 1.749 0 1 1 -2.427 2.52zm31.608-2.559a1.751 1.751 0 0 0 1.744 1.626h.127a1.751 1.751 0 0 0 1.621-1.871 29.439 29.439 0 0 0 -11.088-21.079 1.75 1.75 0 1 0 -2.189 2.73 25.972 25.972 0 0 1 9.785 18.594zm42.693 29.457a29.343 29.343 0 0 1 -2.219 11.245 1.75 1.75 0 1 1 -3.236-1.334 25.769 25.769 0 0 0 1.9-8.161h-9.82a26.037 26.037 0 0 0 -25.753 22.45l16.683-11.755a1.75 1.75 0 1 1 2.017 2.865l-15.175 10.69h6.1a25.968 25.968 0 0 0 17.255-6.549 1.75 1.75 0 0 1 2.323 2.617 29.458 29.458 0 0 1 -19.578 7.432h-9.875v12.06a1.751 1.751 0 0 1 -1.75 1.75h-8a1.751 1.751 0 0 1 -1.75-1.75v-22.067h-9.878a29.533 29.533 0 0 1 -29.5-29.5 1.749 1.749 0 0 1 1.75-1.75h11.625a29.522 29.522 0 0 1 26 15.584v-21.739l-10.135-2.034a1.75 1.75 0 0 1 .689-3.431l11.545 2.316h.012l3.642.73 3.642-.73h.012l8.846-1.775v-4.725a36.271 36.271 0 0 0 -32.1-36.012l-.1-.011a37.059 37.059 0 0 0 -4.041-.227h-10.134v17.638a1.75 1.75 0 0 1 -3.5 0v-19.388a1.751 1.751 0 0 1 1.75-1.75h11.878q1.665 0 3.305.135a41.018 41.018 0 0 1 19.773-17.381 1.752 1.752 0 0 1 1.338 0 41.011 41.011 0 0 1 19.772 17.381q1.639-.133 3.306-.135h11.878a1.751 1.751 0 0 1 1.75 1.75v19.388a26.825 26.825 0 0 1 -21.488 26.227l-1.287.256-8.85 1.778v31.747a29.523 29.523 0 0 1 26-15.585h11.625a1.75 1.75 0 0 1 1.753 1.75zm-28.474-66.681a37.507 37.507 0 0 0 -16.654-14.357 37.507 37.507 0 0 0 -16.654 14.357 39.193 39.193 0 0 1 16.654 7.257 39.188 39.188 0 0 1 16.654-7.257zm-.654 39.12v3.985a23.3 23.3 0 0 0 17.872-22.6v-17.635h-10.125a35.8 35.8 0 0 0 -20.947 6.677 39.554 39.554 0 0 1 13.2 29.573zm-41.122 30.42a1.751 1.751 0 0 1 2.439-.422l16.683 11.756a26.036 26.036 0 0 0 -25.751-22.45h-9.819a26.034 26.034 0 0 0 25.942 24.25h6.1l-15.172-10.695a1.751 1.751 0 0 1 -.422-2.439zm27.372-20.069-1.906.383a1.757 1.757 0 0 1 -.688 0l-1.906-.383v57.02h4.5z" fill="url(#a)"/></svg>